<svg width="20" height="20" viewBox="0 0 20 20" fill="none" xmlns="http://www.w3.org/2000/svg">
<g id="Group">
<path id="Vector" d="M19 6V14C19 15.3261 18.4732 16.5979 17.5355 17.5355C16.5979 18.4732 15.3261 19 14 19H6C4.67392 19 3.40215 18.4732 2.46447 17.5355C1.52678 16.5979 1 15.3261 1 14V6C1 4.67392 1.52678 3.40215 2.46447 2.46447C3.40215 1.52678 4.67392 1 6 1H14C15.3261 1 16.5979 1.52678 17.5355 2.46447C18.4732 3.40215 19 4.67392 19 6Z" stroke="#1A1A1A" stroke-width="1.5" stroke-linecap="round" stroke-linejoin="round"/>
<path id="Vector_2" d="M7.84074 9.50716C10.1645 9.50716 10.1645 13.3333 7.84074 13.3333H5V9.50716M7.84074 9.50716H5M7.84074 9.50716C10.1645 9.50716 10.1645 6 7.84074 6H5V9.50716M11.4166 11.0417C11.4166 11.6494 11.6581 12.2323 12.0879 12.6621C12.5176 13.0919 13.1005 13.3333 13.7083 13.3333C14.559 13.3333 15.0741 13.0381 15.3702 12.765M15.0833 6.45833H12.3333M13.7083 8.74999C13.1005 8.74999 12.5176 8.99143 12.0879 9.4212C11.6581 9.85097 11.4166 10.4339 11.4166 11.0417H16C16 10.4339 15.7585 9.85097 15.3288 9.4212C14.899 8.99143 14.3161 8.74999 13.7083 8.74999Z" stroke="#1A1A1A" stroke-width="1.375" stroke-linecap="round" stroke-linejoin="round"/>
</g>
</svg>
