<svg width="20" height="20" viewBox="0 0 20 20" fill="none" xmlns="http://www.w3.org/2000/svg">
<g id="Component 1">
<path id="Vector" d="M10 6.6665V1.6665L8.33337 3.33317M10 1.6665L11.6667 3.33317" stroke="#007080" stroke-width="1.5" stroke-linecap="round" stroke-linejoin="round"/>
<path id="Vector_2" d="M4.16667 9.99987V8.3332C4.16667 6.6582 4.16667 5.27487 6.66667 5.0332M15.8333 9.99987V8.3332C15.8333 6.6582 15.8333 5.27487 13.3333 5.0332M5.83333 9.99987C2.5 9.99987 2.5 11.4915 2.5 13.3332V14.1665C2.5 16.4665 2.5 18.3332 6.66667 18.3332H13.3333C16.6667 18.3332 17.5 16.4665 17.5 14.1665V13.3332C17.5 11.4915 17.5 9.99987 14.1667 9.99987C13.3333 9.99987 13.1 10.1749 12.6667 10.4999L11.8167 11.3999C11.583 11.6484 11.3009 11.8465 10.9877 11.9819C10.6746 12.1173 10.337 12.1872 9.99583 12.1872C9.65466 12.1872 9.3171 12.1173 9.00395 11.9819C8.6908 11.8465 8.40869 11.6484 8.175 11.3999L7.33333 10.4999C6.9 10.1749 6.66667 9.99987 5.83333 9.99987Z" stroke="#007080" stroke-width="1.5" stroke-miterlimit="10" stroke-linecap="round" stroke-linejoin="round"/>
</g>
</svg>
